<?xml version="1.0" encoding="iso-8859-1"?>
<!-- Generator: Adobe Illustrator 18.1.1, SVG Export Plug-In . SVG Version: 6.00 Build 0)  -->
<svg version="1.1" id="Capa_1" xmlns="http://www.w3.org/2000/svg" xmlns:xlink="http://www.w3.org/1999/xlink" x="0px" y="0px"
	 viewBox="0 0 465 465" style="enable-background:new 0 0 465 465;" xml:space="preserve">
<g>
	<g>
		<g>
			<path d="M411.886,382.143l51.2-51.2c3.2-3.2,3.2-8,0-11.2s-8-3.2-11.2,0l-51.2,51.2l-51.2-50.8c-3.2-3.2-8-3.2-11.2,0
				s-3.2,8,0,11.2l50.8,50.8l-50.8,51.2c-3.2,3.2-3.2,8,0,11.2c1.6,1.6,3.6,2.4,5.6,2.4s4-0.8,5.6-2.4l50.8-51.2l51.2,51.2
				c1.6,1.6,3.6,2.4,5.6,2.4s4-0.8,5.6-2.4c3.2-3.2,3.2-8,0-11.2L411.886,382.143z"/>
			<path d="M357.086,382.143c0-4.4-3.6-8-8-8h-253.6c-2.8,0-4.4-1.6-5.2-2.4c-1.2-1.6-1.6-4-1.2-5.6l16.8-58.4
				c8-27.6,30-49.2,58-56.4l4.8-1.2c1.6-0.4,3.2,0.4,4.4,1.6c22,25.2,49.2,27.2,75.6,27.2c26.4,0,53.6-2,75.6-27.2
				c1.2-1.2,2.8-2,4.8-1.6l4.8,1.2c27.6,7.2,50,28.8,58,56.4l7.2,24.8c1.2,4.4,5.6,6.8,10,5.6c4.4-1.2,6.8-5.6,5.6-10l-7.2-24.8
				c-9.6-33.2-36-58.8-69.6-67.6l-5.2-1.2c-7.2-2-15.2,0.4-20.4,6.4c-17.6,20-40,21.6-63.6,21.6c-23.6,0-46-1.6-63.6-21.6
				c-5.2-6-13.2-8.4-20.4-6.4l-4.8,1.2c-33.2,8.8-59.6,34.4-69.2,67.6l-6.8,23.2h-64.4c-1.6,0-2.4-0.8-2.8-1.2
				c-0.4-0.4-1.2-1.6-0.8-3.2l13.2-46.8c11.2-37.2,34.8-49.2,77.2-59.2c0.8,0,1.2-0.4,2-0.8c2.8,2,6,4,8.8,5.6
				c1.2,0.8,2.4,0.8,3.6,0.8c2.8,0,5.6-1.6,7.2-4.4c2-4,0.4-8.8-3.2-10.8c-23.6-12-40.8-46.8-40.8-82.4c0-32.4,26-58.4,58.4-58.4
				c9.6,0,18.4,2.4,27.2,6.8c-4.8,11.2-7.6,23.6-7.6,36.4c0,68.4,41.2,126,90.4,126c48,0,90.4-58.8,90.4-126
				c0-50-40.4-90.4-90.4-90.4c-31.2,0-58.8,16-75.2,40l-0.4-0.4c-10.8-5.6-22.4-8.4-34.4-8.4c-41.2,0-74.4,33.2-74.4,74.4
				c0,30,10.4,58.8,26.8,78c-36.4,9.2-66.8,22.8-80.8,68.4l-13.2,47.2c-1.6,6-0.4,12.4,3.6,17.2c3.6,4.8,9.2,7.6,15.2,7.6h59.6
				l-5.6,19.2c-1.6,6.8-0.4,14,4,19.6c4.4,5.6,10.8,8.8,17.6,8.8h253.6C353.486,390.143,357.086,386.543,357.086,382.143z
				 M252.286,34.543c33.2,0,61.2,22,70.8,52c-14,2.8-28.8-2.8-37.6-14.8c-2.8-3.6-7.6-4.4-11.2-1.6c-1.6,1.2-2.4,2.4-2.8,4
				c-0.4,0.4-0.4,0.8-0.8,1.2c-11.2,22.8-48.8,32.4-92,24C183.486,62.943,214.686,34.543,252.286,34.543z M208.686,118.143
				c32,0,58.4-10,72-28.8c10,8.8,22.4,13.6,35.6,13.6c3.2,0,6.8-0.4,10-1.2c0.4,2.4,0.4,4.4,0.4,6.8c0,58.8-34.8,110.4-74.4,110.4
				c-38,0-72-47.6-74.4-103.6C188.686,117.343,198.686,118.143,208.686,118.143z"/>
		</g>
	</g>
</g>
<g>
</g>
<g>
</g>
<g>
</g>
<g>
</g>
<g>
</g>
<g>
</g>
<g>
</g>
<g>
</g>
<g>
</g>
<g>
</g>
<g>
</g>
<g>
</g>
<g>
</g>
<g>
</g>
<g>
</g>
</svg>
