<?xml version="1.0" encoding="iso-8859-1"?>
<!-- Generator: Adobe Illustrator 19.0.0, SVG Export Plug-In . SVG Version: 6.00 Build 0)  -->
<svg version="1.1" id="Layer_1" xmlns="http://www.w3.org/2000/svg" xmlns:xlink="http://www.w3.org/1999/xlink" x="0px" y="0px"
	 viewBox="0 0 512 512" style="enable-background:new 0 0 512 512;" xml:space="preserve">
<g>
	<g>
		<g>
			<path d="M212.884,495.832H40.421c-13.373,0-24.253-10.88-24.253-24.253s10.879-24.253,24.253-24.253h54.271
				c4.923,0,9.547-1.921,13.021-5.407c3.543-3.556,5.485-8.304,5.467-13.343v-0.113c0-13.372,10.879-24.253,24.253-24.253h32.337
				c4.465,0,8.084-3.618,8.084-8.084c0-4.466-3.62-8.084-8.084-8.084h-32.337c-22.289,0-40.421,18.132-40.421,40.421v0.141
				c0.003,0.996-0.469,1.619-0.751,1.903c-0.431,0.432-0.958,0.651-1.568,0.651H40.421C18.132,431.158,0,449.29,0,471.579
				C0,493.868,18.132,512,40.421,512h172.463c4.465,0,8.084-3.618,8.084-8.084C220.968,499.45,217.349,495.832,212.884,495.832z"/>
			<path d="M482.358,118.568h-36.853c-3.032-6.367-9.532-10.779-17.042-10.779h-53.895c-7.51,0-14.009,4.412-17.042,10.779h-36.853
				c-4.465,0-8.084,3.619-8.084,8.084s3.62,8.084,8.084,8.084h35.032v2.204c0,15.613,11.492,28.507,26.735,29.991
				c1.879,0.183,3.752,0.189,5.602,0.019v34.637c0,16.33,12.549,29.569,28.57,30.139c8.11,0.272,15.815-2.656,21.656-8.292
				c5.841-5.637,9.059-13.213,9.059-21.33v-2.695h26.213l-14.232,163.68c-0.387,4.447,2.906,8.368,7.353,8.754
				c0.238,0.021,0.475,0.03,0.71,0.03c4.148,0,7.679-3.175,8.044-7.385l14.438-166.04C502.58,195.122,512,183.525,512,169.768
				V148.21C512,131.866,498.703,118.568,482.358,118.568z M431.157,126.653v75.454c0,3.69-1.463,7.133-4.119,9.697
				c-2.654,2.561-6.148,3.874-9.854,3.768c-7.154-0.255-12.975-6.528-12.975-13.982v-45.507c0-2.891-1.542-5.56-4.046-7.004
				c-1.25-0.72-2.644-1.08-4.038-1.08c-1.399,0-2.798,0.363-4.051,1.089c-2.455,1.422-5.246,2.03-8.069,1.754
				c-6.803-0.663-12.132-6.768-12.132-13.899v-10.289c0-1.486,1.209-2.695,2.695-2.695h53.895c1.485,0,2.695,1.208,2.695,2.695
				H431.157z M495.832,169.768c0,7.409-6.01,13.44-13.412,13.474c-0.052,0-0.102,0-0.155,0h-34.938v-48.505h35.032
				c7.43,0,13.474,6.044,13.474,13.474V169.768z"/>
			<path d="M363.789,199.411c4.465,0,8.084-3.618,8.084-8.084c0-4.466-3.62-8.084-8.084-8.084h-43.116
				c-4.465,0-8.084,3.618-8.084,8.084c0,4.466,3.62,8.084,8.084,8.084H363.789z"/>
			<path d="M499.133,413.283c-16.382-27.972-46.758-46.799-81.449-46.799H353.01c-7.43,0-13.474-6.044-13.474-13.474v-10.779
				c0-2.894-0.424-5.762-1.246-8.511c7.291-5.406,12.025-14.073,12.025-23.826c0-16.344-13.297-29.642-29.642-29.642H307.2v-2.695
				c0-7.511-4.411-14.01-10.779-17.043V29.642C296.421,13.298,283.124,0,266.779,0c-16.345,0-29.642,13.298-29.642,29.642v88.926
				h-99.705c-16.345,0-29.642,13.298-29.642,29.642v21.558c0,13.756,9.42,25.353,22.146,28.683l14.438,166.039
				c0.387,4.45,4.303,7.76,8.755,7.353c4.448-0.386,7.74-4.306,7.353-8.754L146.25,199.411h90.887v61.105
				c-6.368,3.033-10.779,9.532-10.779,17.043v2.695h-13.474c-16.345,0-29.642,13.298-29.642,29.642
				c0,9.753,4.734,18.42,12.025,23.826c-0.822,2.748-1.246,5.616-1.246,8.511v75.453c0,52.006,42.31,94.316,94.316,94.316h204.8
				c10.401,0,18.863-8.463,18.863-18.863V460.8c0-17.02-4.533-33.002-12.452-46.802
				C499.422,413.752,499.283,413.514,499.133,413.283z M253.305,29.642c0-7.43,6.044-13.474,13.474-13.474
				s13.474,6.044,13.474,13.474v229.053h-26.947V29.642z M137.525,183.242c-0.052,0.001-0.105,0.001-0.155,0
				c-7.401-0.033-13.412-6.064-13.412-13.474V148.21c0-7.43,6.044-13.474,13.474-13.474h99.705v48.505H137.525z M495.832,493.137
				c0,1.486-1.209,2.695-2.695,2.695H374.568c-43.091,0-78.147-35.056-78.147-78.147v-53.895c0-4.466-3.62-8.084-8.084-8.084
				c-4.465,0-8.084,3.618-8.084,8.084v53.895c0,32.018,16.037,60.361,40.5,77.418c-38.045-5.232-67.447-37.957-67.447-77.418
				v-53.895c0-4.466-3.62-8.084-8.084-8.084c-4.465,0-8.084,3.618-8.084,8.084v53.895c0,32.018,16.037,60.361,40.5,77.42
				c-38.045-5.232-67.447-37.957-67.447-77.418v-75.453c0-0.942,0.099-1.878,0.291-2.792c0.792,0.065,1.595,0.097,2.404,0.097
				h64.674c4.465,0,8.084-3.618,8.084-8.084c0-4.466-3.62-8.084-8.084-8.084h-64.674c-7.43,0-13.474-6.044-13.474-13.474
				s6.044-13.474,13.474-13.474h21.558c4.465,0,8.084-3.618,8.084-8.084V277.56c0-1.486,1.209-2.695,2.695-2.695h43.116
				c1.485,0,2.695,1.208,2.695,2.695v10.779c0,4.466,3.62,8.084,8.084,8.084h21.558c7.43,0,13.474,6.044,13.474,13.474
				s-6.044,13.474-13.474,13.474h-10.779c-4.465,0-8.084,3.618-8.084,8.084c0,4.466,3.62,8.084,8.084,8.084h10.779
				c0.808,0,1.61-0.032,2.404-0.097c0.193,0.914,0.291,1.85,0.291,2.792v10.779c0,16.344,13.297,29.642,29.642,29.642h64.674
				c23.523,0,44.653,10.449,58.992,26.947H374.568c-13.256,0-26.347-3.377-37.859-9.765c-3.904-2.165-8.826-0.759-10.991,3.146
				c-2.167,3.903-0.758,8.824,3.146,10.99c13.906,7.717,29.71,11.795,45.704,11.795h112.964c4.157,8.256,6.894,17.348,7.885,26.947
				H374.569c-13.255,0-26.345-3.376-37.856-9.764c-3.905-2.168-8.825-0.756-10.991,3.147c-2.167,3.904-0.758,8.825,3.146,10.99
				c13.904,7.716,29.707,11.793,45.7,11.793h121.263V493.137z"/>
		</g>
	</g>
</g>
<g>
</g>
<g>
</g>
<g>
</g>
<g>
</g>
<g>
</g>
<g>
</g>
<g>
</g>
<g>
</g>
<g>
</g>
<g>
</g>
<g>
</g>
<g>
</g>
<g>
</g>
<g>
</g>
<g>
</g>
</svg>
