<?xml version="1.0" encoding="iso-8859-1"?>
<!-- Generator: Adobe Illustrator 18.1.1, SVG Export Plug-In . SVG Version: 6.00 Build 0)  -->
<svg version="1.1" id="Capa_1" xmlns="http://www.w3.org/2000/svg" xmlns:xlink="http://www.w3.org/1999/xlink" x="0px" y="0px"
	 viewBox="0 0 80 80" style="enable-background:new 0 0 80 80;" xml:space="preserve">
<g id="_x37_7_Essential_Icons_30_">
	<path fill-rule="evenodd"  
 d="M69.032,66.014 L67.115,66.014 L67.115,73.220 C67.115,76.428 64.497,79.037 61.278,79.037 L21.202,79.037 L14.738,79.037 C11.519,79.037 8.900,76.428 8.900,73.220 L8.900,13.250 C8.900,6.490 14.419,0.991 21.202,0.991 L25.999,0.991 C26.716,0.991 27.297,1.570 27.297,2.284 C27.297,2.998 26.716,3.577 25.999,3.577 L21.202,3.577 C15.850,3.577 11.496,7.916 11.496,13.250 C11.496,16.917 13.554,20.113 16.579,21.753 C17.993,22.519 19.593,22.922 21.202,22.922 L64.520,22.922 L64.520,19.474 L56.040,19.474 C55.324,19.474 54.743,18.895 54.743,18.180 C54.743,17.466 55.324,16.887 56.040,16.887 L64.520,16.887 L64.520,9.612 L21.202,9.612 C19.189,9.612 17.552,11.244 17.552,13.250 C17.552,15.256 19.189,16.888 21.202,16.888 L50.849,16.888 C51.566,16.888 52.147,17.466 52.147,18.181 C52.147,18.895 51.566,19.474 50.849,19.474 L21.202,19.474 C17.758,19.474 14.957,16.682 14.957,13.250 C14.957,9.818 17.758,7.026 21.202,7.026 L64.520,7.026 L64.520,3.577 L31.188,3.577 C30.472,3.577 29.891,2.998 29.891,2.284 C29.891,1.570 30.472,0.991 31.188,0.991 L65.818,0.991 C66.534,0.991 67.115,1.570 67.115,2.284 L67.115,31.844 L69.032,31.844 C69.749,31.844 70.330,32.423 70.330,33.137 L70.330,64.721 C70.330,65.435 69.749,66.014 69.032,66.014 ZM64.520,25.509 L22.500,25.509 L22.500,64.729 C22.500,65.444 21.919,66.023 21.202,66.023 C20.485,66.023 19.904,65.444 19.904,64.729 L19.904,25.441 C19.825,25.433 19.748,25.420 19.669,25.410 C16.516,25.021 13.587,23.371 11.601,20.902 C11.567,20.859 11.530,20.817 11.496,20.774 L11.496,73.220 C11.496,75.001 12.950,76.450 14.738,76.450 L19.904,76.450 L19.904,69.902 C19.904,69.188 20.485,68.609 21.202,68.609 C21.919,68.609 22.500,69.188 22.500,69.902 L22.500,76.450 L61.278,76.450 C63.066,76.450 64.520,75.001 64.520,73.220 L64.520,66.014 L60.558,66.014 C60.127,66.014 59.724,65.801 59.483,65.445 L50.322,51.955 C49.074,50.117 49.074,47.741 50.322,45.902 L59.483,32.412 C59.724,32.057 60.127,31.844 60.558,31.844 L64.520,31.844 L64.520,25.509 ZM67.734,34.430 L65.818,34.430 L61.247,34.430 L52.472,47.352 C51.821,48.310 51.821,49.548 52.472,50.506 L61.247,63.427 L65.818,63.427 L67.734,63.427 L67.734,34.430 ZM58.130,51.100 C56.926,51.100 55.951,50.128 55.951,48.929 C55.951,47.729 56.926,46.757 58.130,46.757 C59.333,46.757 60.308,47.729 60.308,48.929 C60.308,50.128 59.333,51.100 58.130,51.100 Z"/>
</g>
<g>
</g>
<g>
</g>
<g>
</g>
<g>
</g>
<g>
</g>
<g>
</g>
<g>
</g>
<g>
</g>
<g>
</g>
<g>
</g>
<g>
</g>
<g>
</g>
<g>
</g>
<g>
</g>
<g>
</g>
</svg>
