<?xml version="1.0" encoding="iso-8859-1"?>
<!-- Generator: Adobe Illustrator 19.0.0, SVG Export Plug-In . SVG Version: 6.00 Build 0)  -->
<svg version="1.1" id="Layer_1" xmlns="http://www.w3.org/2000/svg" xmlns:xlink="http://www.w3.org/1999/xlink" x="0px" y="0px"
	 viewBox="0 0 512.001 512.001" style="enable-background:new 0 0 512.001 512.001;" xml:space="preserve">
<g>
	<g>
		<path d="M318.783,0c-22.289,0-40.421,18.132-40.421,40.421s18.132,40.421,40.421,40.421s40.421-18.132,40.421-40.421
			S341.071,0,318.783,0z M318.783,64.674c-13.372,0-24.253-10.88-24.253-24.253c0-13.372,10.88-24.253,24.253-24.253
			s24.253,10.88,24.253,24.253C343.035,53.793,332.155,64.674,318.783,64.674z"/>
	</g>
</g>
<g>
	<g>
		<path d="M405.014,21.558c-16.344,0-29.642,13.298-29.642,29.642s13.298,29.642,29.642,29.642s29.642-13.298,29.642-29.642
			S421.358,21.558,405.014,21.558z M405.014,64.674c-7.43,0-13.474-6.044-13.474-13.474s6.045-13.474,13.474-13.474
			c7.43,0,13.474,6.044,13.474,13.474S412.444,64.674,405.014,64.674z"/>
	</g>
</g>
<g>
	<g>
		<path d="M458.909,64.674c-16.344,0-29.642,13.298-29.642,29.642s13.298,29.642,29.642,29.642s29.642-13.298,29.642-29.642
			S475.253,64.674,458.909,64.674z M458.909,107.789c-7.43,0-13.474-6.044-13.474-13.474s6.045-13.474,13.474-13.474
			c7.43,0,13.474,6.044,13.474,13.474S466.339,107.789,458.909,107.789z"/>
	</g>
</g>
<g>
	<g>
		<path d="M480.467,129.347c-16.344,0-29.642,13.298-29.642,29.642s13.298,29.642,29.642,29.642s29.642-13.298,29.642-29.642
			S496.811,129.347,480.467,129.347z M480.467,172.463c-7.43,0-13.474-6.044-13.474-13.474s6.044-13.474,13.474-13.474
			s13.474,6.044,13.474,13.474S487.897,172.463,480.467,172.463z"/>
	</g>
</g>
<g>
	<g>
		<path d="M193.219,0c-22.289,0-40.421,18.132-40.421,40.421s18.132,40.421,40.421,40.421S233.64,62.71,233.64,40.421
			S215.507,0,193.219,0z M193.219,64.674c-13.372,0-24.253-10.88-24.253-24.253c0-13.372,10.88-24.253,24.253-24.253
			s24.253,10.88,24.253,24.253C217.471,53.793,206.591,64.674,193.219,64.674z"/>
	</g>
</g>
<g>
	<g>
		<path d="M106.987,21.558c-16.344,0-29.642,13.298-29.642,29.642s13.298,29.642,29.642,29.642s29.642-13.298,29.642-29.642
			S123.331,21.558,106.987,21.558z M106.987,64.674c-7.429,0-13.474-6.044-13.474-13.474s6.044-13.474,13.474-13.474
			s13.474,6.044,13.474,13.474S114.416,64.674,106.987,64.674z"/>
	</g>
</g>
<g>
	<g>
		<path d="M53.092,64.674c-16.344,0-29.642,13.298-29.642,29.642s13.298,29.642,29.642,29.642s29.642-13.298,29.642-29.642
			S69.436,64.674,53.092,64.674z M53.092,107.789c-7.43,0-13.474-6.044-13.474-13.474s6.044-13.474,13.474-13.474
			s13.474,6.044,13.474,13.474S60.522,107.789,53.092,107.789z"/>
	</g>
</g>
<g>
	<g>
		<path d="M31.534,129.347c-16.344,0-29.642,13.298-29.642,29.642s13.298,29.642,29.642,29.642s29.642-13.298,29.642-29.642
			S47.878,129.347,31.534,129.347z M31.534,172.463c-7.43,0-13.474-6.044-13.474-13.474s6.044-13.474,13.474-13.474
			s13.474,6.044,13.474,13.474S38.963,172.463,31.534,172.463z"/>
	</g>
</g>
<g>
	<g>
		<path d="M406.906,366.484h-34.813c-38.754,0-70.282,31.528-70.282,70.282V460.8c0,4.466,3.618,8.084,8.084,8.084h34.813
			c38.754,0,70.282-31.528,70.282-70.282v-24.034C414.99,370.103,411.372,366.484,406.906,366.484z M398.822,398.602
			c0,29.838-24.275,54.114-54.114,54.114h-26.729v-15.95c0-29.838,24.275-54.114,54.114-54.114h26.729V398.602z"/>
	</g>
</g>
<g>
	<g>
		<path d="M139.908,366.484h-34.813c-4.466,0-8.084,3.619-8.084,8.084v24.034c0,38.754,31.528,70.282,70.282,70.282h34.813
			c4.466,0,8.084-3.618,8.084-8.084v-24.034C210.19,398.013,178.662,366.484,139.908,366.484z M194.022,452.716h-26.729
			c-29.838,0-54.114-24.275-54.114-54.114v-15.95h26.729c29.838,0,54.114,24.275,54.114,54.114V452.716z"/>
	</g>
</g>
<g>
	<g>
		<path d="M397.961,96.375c-19.72-10.709-42.412-13.051-63.891-6.599c-21.484,6.45-39.129,20.905-49.686,40.696
			c-8.83,16.559-11.807,35.066-8.608,53.521c1.907,11.003,2.516,21.556,1.811,31.366l-0.305,4.25
			c-0.664,9.238-2.44,18.793-5.28,28.398c-5.849,19.785-1.321,40.544,10.845,55.947l-26.847,26.846l-26.845-26.846
			c12.166-15.403,16.693-36.161,10.845-55.946c-2.84-9.605-4.616-19.16-5.28-28.398l-0.305-4.251
			c-0.705-9.809-0.096-20.361,1.811-31.363c3.199-18.456,0.222-36.963-8.609-53.522c-10.556-19.791-28.201-34.246-49.684-40.696
			c-21.481-6.45-44.171-4.108-63.891,6.599v-0.001c-40.176,21.81-55.158,72.753-33.395,113.557l12.964,24.305
			c2.555,4.79,9.01,5.751,12.849,1.912c2.516-2.516,3.091-6.381,1.416-9.52l-12.963-24.305
			c-17.598-32.995-5.555-74.149,26.843-91.737v-0.001c10.019-5.439,20.987-8.202,32.063-8.202c7.657,0,15.37,1.323,22.85,3.993
			c15.651,5.587,28.747,16.914,36.603,31.559c7.183,13.392,9.613,28.369,7.025,43.3c-2.131,12.296-2.806,24.166-2.006,35.283
			l0.305,4.25c0.746,10.397,2.732,21.104,5.901,31.823c6.232,21.084-3.481,43.677-23.097,53.721
			c-22.097,11.318-49.778,2.342-61.699-20.009l-12.455-23.355c-2.555-4.79-9.01-5.751-12.848-1.912
			c-2.516,2.516-3.091,6.381-1.416,9.52l12.456,23.355c11.272,21.133,33.069,33.349,55.408,33.443l45.759,61.011l9.595,105.55
			c0.937,10.311,9.452,18.087,19.805,18.087c10.353,0,18.869-7.776,19.805-18.087l9.595-105.55l45.759-61.011
			c22.337-0.096,44.138-12.312,55.408-33.443l44.79-83.979C453.119,169.126,438.139,118.185,397.961,96.375z M271.091,380.497
			c-0.9,1.199-1.448,2.626-1.583,4.119l-9.803,107.834c-0.176,1.928-1.769,3.382-3.705,3.382c-1.936,0-3.528-1.454-3.705-3.382
			l-9.803-107.834c-0.136-1.494-0.683-2.92-1.583-4.119l-41.883-55.844c3.307-1.021,6.567-2.326,9.74-3.952
			c3.123-1.599,6.052-3.442,8.79-5.48l32.726,32.726c1.579,1.578,3.649,2.367,5.717,2.367s4.138-0.789,5.717-2.367l32.726-32.726
			c2.738,2.038,5.668,3.88,8.79,5.479c3.174,1.625,6.434,2.931,9.741,3.952L271.091,380.497z M417.092,202.322l-44.79,83.979
			c-11.922,22.35-39.596,31.328-61.7,20.009c-19.616-10.044-29.328-32.638-23.096-53.721c3.168-10.719,5.154-21.426,5.901-31.823
			l0.305-4.249c0.799-11.117,0.124-22.988-2.006-35.285c-2.579-14.876-0.177-29.798,6.944-43.151
			c8.513-15.961,22.744-27.617,40.07-32.819c6.411-1.926,12.956-2.88,19.465-2.88c11.075,0,22.045,2.764,32.063,8.202v0.001
			C422.647,128.172,434.689,169.326,417.092,202.322z"/>
	</g>
</g>
<g>
</g>
<g>
</g>
<g>
</g>
<g>
</g>
<g>
</g>
<g>
</g>
<g>
</g>
<g>
</g>
<g>
</g>
<g>
</g>
<g>
</g>
<g>
</g>
<g>
</g>
<g>
</g>
<g>
</g>
</svg>
