<?xml version="1.0" encoding="iso-8859-1"?>
<!-- Generator: Adobe Illustrator 18.1.1, SVG Export Plug-In . SVG Version: 6.00 Build 0)  -->
<svg version="1.1" id="Capa_1" xmlns="http://www.w3.org/2000/svg" xmlns:xlink="http://www.w3.org/1999/xlink" x="0px" y="0px"
	 viewBox="0 0 511 511" style="enable-background:new 0 0 511 511;" xml:space="preserve">
<g>
	<g>
		<path d="M142.341,156.131l-15.12,3.896c1.188,4.609,1.79,9.386,1.79,14.197c0,31.264-25.435,56.698-56.698,56.698
			s-56.699-25.434-56.699-56.698s25.434-56.698,56.698-56.698c16.257,0,31.757,6.997,42.525,19.196l11.706-10.332
			c-13.73-15.556-33.496-24.478-54.231-24.478C32.439,101.912,0,134.351,0,174.225s32.439,72.312,72.312,72.312
			s72.312-32.439,72.312-72.312C144.624,168.101,143.856,162.012,142.341,156.131z"/>
	</g>
</g>
<g>
	<g>
		<rect x="197.633" y="119.301" width="314.365" height="15.614"/>
	</g>
</g>
<g>
	<g>
		<rect x="197.633" y="151.571" width="56.211" height="15.614"/>
	</g>
</g>
<g>
	<g>
		<rect x="197.633" y="183.84" width="314.365" height="15.614"/>
	</g>
</g>
<g>
	<g>
		<rect x="197.633" y="216.109" width="249.826" height="15.614"/>
	</g>
</g>
<g>
	<g>
		<polygon points="187.738,71.946 80.375,179.311 53.643,152.577 42.603,163.618 80.375,201.391 198.779,82.987 		"/>
	</g>
</g>
<g>
	<g>
		<path d="M142.341,349.647l-15.121,3.895c1.188,4.609,1.79,9.386,1.79,14.196c0,31.264-25.435,56.698-56.698,56.698
			s-56.698-25.434-56.698-56.697c0-31.264,25.434-56.698,56.698-56.698c16.257,0,31.757,6.997,42.525,19.196l11.706-10.332
			c-13.73-15.556-33.496-24.478-54.231-24.478C32.439,295.428,0,327.867,0,367.74c0,39.873,32.439,72.312,72.312,72.312
			s72.312-32.439,72.312-72.312C144.624,361.616,143.856,355.529,142.341,349.647z"/>
	</g>
</g>
<g>
	<g>
		<rect x="197.633" y="311.876" width="314.365" height="15.614"/>
	</g>
</g>
<g>
	<g>
		<rect x="197.633" y="345.186" width="56.211" height="15.614"/>
	</g>
</g>
<g>
	<g>
		<rect x="197.633" y="376.414" width="314.365" height="15.614"/>
	</g>
</g>
<g>
	<g>
		<rect x="197.633" y="409.724" width="249.826" height="15.614"/>
	</g>
</g>
<g>
	<g>
		<polygon points="187.738,265.461 80.375,372.825 53.643,346.092 42.603,357.134 80.375,394.906 198.779,276.502 		"/>
	</g>
</g>
<g>
</g>
<g>
</g>
<g>
</g>
<g>
</g>
<g>
</g>
<g>
</g>
<g>
</g>
</svg> 