<?xml version="1.0" encoding="iso-8859-1"?>
<!-- Generator: Adobe Illustrator 17.1.0, SVG Export Plug-In . SVG Version: 6.00 Build 0)  -->
<!DOCTYPE svg PUBLIC "-//W3C//DTD SVG 1.1//EN" "http://www.w3.org/Graphics/SVG/1.1/DTD/svg11.dtd">
<svg version="1.1" id="Capa_1" xmlns="http://www.w3.org/2000/svg" xmlns:xlink="http://www.w3.org/1999/xlink" x="0px" y="0px"
	 viewBox="0 0 401.89 401.89" style="enable-background:new 0 0 401.89 401.89;" xml:space="preserve">
<path id="XMLID_1830_" d="M206.815,326.086c4.971,0,9,4.029,9,9s-4.029,9-9,9H195.39c-4.971,0-9-4.029-9-9s4.029-9,9-9H206.815z
	 M241.102,167.649c2.287,0,4.575-0.866,6.329-2.602c3.534-3.496,3.564-9.194,0.068-12.729
	c-19.426-19.636-23.516-43.615-23.525-60.272c-0.003-4.97-4.031-8.995-9-8.995c-0.001,0-0.004,0-0.005,0
	c-4.97,0.003-8.998,4.035-8.995,9.005c0.017,28.315,10.22,54.213,28.729,72.923C236.464,166.758,238.782,167.649,241.102,167.649z
	 M210.518,303.112h-18.829c-12.458,0-22.594-10.135-22.594-22.593c0-12.459,10.136-22.595,22.594-22.595h18.829
	c12.458,0,22.594,10.136,22.594,22.594S222.977,303.112,210.518,303.112z M215.112,280.519c0-2.49-2.104-4.595-4.594-4.595h-18.829
	c-2.49,0-4.594,2.104-4.594,4.594s2.104,4.594,4.594,4.594h18.829C213.008,285.112,215.112,283.008,215.112,280.519z
	 M214.585,241.293h-26.964c-15.697,0-28.467-12.771-28.467-28.467s12.771-28.467,28.467-28.467h26.964
	c15.696,0,28.466,12.77,28.466,28.466C243.051,228.523,230.281,241.293,214.585,241.293z M225.051,212.826
	c0-5.771-4.695-10.467-10.466-10.467h-26.964c-5.771,0-10.467,4.695-10.467,10.466c0,5.772,4.696,10.468,10.467,10.468h26.964
	C220.356,223.293,225.051,218.598,225.051,212.826z M301.406,121.567c1.271-2.103,2.347-4.295,3.207-6.558
	c1.764-4.646-0.572-9.844-5.219-11.608c-4.646-1.765-9.844,0.572-11.609,5.22c-0.635,1.673-1.486,3.288-2.529,4.825
	c-0.158,0.206-0.308,0.419-0.448,0.639c-3.75,5.186-9.695,9.406-16.821,11.778c-4.716,1.569-7.267,6.665-5.697,11.382
	c1.57,4.716,6.667,7.267,11.381,5.696c3.279-1.091,6.406-2.466,9.338-4.084c-0.975,22.718-3.593,44.948-6.144,66.605
	c-5.501,46.708-11.189,95.006-0.08,147.034c0.903,4.228,4.637,7.123,8.793,7.123c0.623,0,1.255-0.065,1.888-0.2
	c4.861-1.038,7.96-5.82,6.922-10.682c-10.488-49.118-5.222-93.831,0.353-141.17C297.998,179.921,301.361,151.362,301.406,121.567z
	 M314.917,326.296c-4.746-1.473-9.789,1.189-11.258,5.938s1.189,9.789,5.938,11.258c20.761,6.424,25.255,12.581,25.255,13.761
	c0,1.534-6.227,9.286-34.99,16.467c-26.27,6.559-61.343,10.171-98.759,10.171c-37.415,0-72.488-3.612-98.758-10.171
	c-28.764-7.181-34.991-14.933-34.991-16.467c0-1.18,4.494-7.337,25.254-13.761c4.749-1.469,7.407-6.51,5.938-11.258
	c-1.469-4.749-6.511-7.408-11.258-5.938c-25.171,7.788-37.934,18.203-37.934,30.956c0,14.459,16.362,25.875,48.63,33.931
	c27.655,6.904,64.277,10.707,103.119,10.707c38.843,0,75.465-3.803,103.12-10.707c32.269-8.056,48.63-19.472,48.63-33.931
	C352.852,344.499,340.089,334.084,314.917,326.296z M154.776,165.047c1.754,1.735,4.042,2.602,6.329,2.602
	c2.319,0,4.639-0.892,6.399-2.671c18.508-18.709,28.71-44.606,28.727-72.922c0.003-4.97-4.024-9.002-8.995-9.005
	c-0.002,0-0.003,0-0.005,0c-4.968,0-8.997,4.026-9,8.995c-0.01,16.658-4.099,40.638-23.524,60.273
	C151.212,155.853,151.242,161.551,154.776,165.047z M340.37,53.463c-11.763-11.906-28.442-19.015-44.616-19.015h-25.326
	c-7.787,0-19.153-10.609-22.71-24.813l-0.708-2.823c-1.209-4.821-6.102-7.748-10.92-6.539c-4.821,1.21-7.749,6.099-6.539,10.92
	l0.708,2.819c5.398,21.553,23.043,38.436,40.17,38.436h25.326c11.294,0,23.484,5.236,31.812,13.665
	c11.869,12.014,15.195,24.064,12.271,44.464l-26.868,187.425c-0.706,4.921,2.711,9.48,7.631,10.187
	c0.434,0.062,0.863,0.092,1.289,0.092c4.405,0,8.254-3.237,8.898-7.724l26.867-187.425C361.354,87.316,356.185,69.471,340.37,53.463
	z M139.913,137.244c1.57-4.716-0.98-9.812-5.696-11.382c-7.126-2.373-13.072-6.595-16.822-11.78c-0.14-0.218-0.288-0.43-0.445-0.635
	c-1.043-1.537-1.895-3.154-2.531-4.828c-1.764-4.646-6.962-6.983-11.609-5.219s-6.983,6.962-5.218,11.609
	c0.859,2.262,1.935,4.454,3.206,6.556c0.045,29.794,3.409,58.354,6.665,85.999c5.575,47.339,10.841,92.054,0.353,141.173
	c-1.038,4.861,2.062,9.644,6.922,10.682c0.634,0.135,1.265,0.2,1.888,0.2c4.155,0,7.89-2.896,8.793-7.123
	c11.109-52.029,5.421-100.328-0.08-147.037c-2.551-21.657-5.168-43.885-6.144-66.603c2.932,1.619,6.057,2.992,9.336,4.084
	C133.247,144.513,138.343,141.961,139.913,137.244z M80.003,308.28c0.425,0,0.855-0.03,1.289-0.092
	c4.92-0.706,8.337-5.266,7.632-10.187l-26.87-187.424c-2.923-20.399,0.403-32.45,12.271-44.464
	c8.329-8.43,20.52-13.666,31.814-13.666h25.324c17.127,0,34.773-16.883,40.17-38.43l0.709-2.823
	c1.21-4.821-1.716-9.711-6.537-10.921c-4.819-1.215-9.71,1.715-10.921,6.536l-0.71,2.829c-3.556,14.199-14.923,24.809-22.71,24.809
	h-25.324c-16.174,0-32.853,7.108-44.619,19.015c-15.813,16.009-20.982,33.854-17.284,59.669l26.869,187.425
	C71.748,305.044,75.598,308.28,80.003,308.28z"/>
<g>
</g>
<g>
</g>
<g>
</g>
<g>
</g>
<g>
</g>
<g>
</g>
<g>
</g>
<g>
</g>
<g>
</g>
<g>
</g>
<g>
</g>
<g>
</g>
<g>
</g>
<g>
</g>
<g>
</g>
</svg>
