<?xml version="1.0" encoding="iso-8859-1"?>
<!-- Generator: Adobe Illustrator 18.1.1, SVG Export Plug-In . SVG Version: 6.00 Build 0)  -->
<svg version="1.1" id="Capa_1" xmlns="http://www.w3.org/2000/svg" xmlns:xlink="http://www.w3.org/1999/xlink" x="0px" y="0px"
	 viewBox="0 0 76 76" style="enable-background:new 0 0 76 76;" xml:space="preserve">
<g id="_x37_7_Essential_Icons_30_">
	<path id="List" d="M38,0C17,0,0,17,0,38s17,38,38,38s38-17,38-38S59,0,38,0z M38,72C19.2,72,4,56.8,4,38S19.2,4,38,4s34,15.2,34,34
		S56.8,72,38,72z M57.5,38c0,1.1-0.9,2-2,2H33.1c-1.1,0-2-0.9-2-2s0.9-2,2-2h22.4C56.6,36,57.5,36.9,57.5,38z M57.5,50
		c0,1.1-0.9,2-2,2H33.1c-1.1,0-2-0.9-2-2s0.9-2,2-2h22.4C56.6,48,57.5,48.9,57.5,50z M26.3,38c0,1.1-0.9,2-2,2h-3.8
		c-1.1,0-2-0.9-2-2s0.9-2,2-2h3.8C25.4,36,26.3,36.9,26.3,38z M26.3,50c0,1.1-0.9,2-2,2h-3.8c-1.1,0-2-0.9-2-2s0.9-2,2-2h3.8
		C25.4,48,26.3,48.9,26.3,50z M57.5,26c0,1.1-0.9,2-2,2H33.1c-1.1,0-2-0.9-2-2s0.9-2,2-2h22.4C56.6,24,57.5,24.9,57.5,26z M26.3,26
		c0,1.1-0.9,2-2,2h-3.8c-1.1,0-2-0.9-2-2s0.9-2,2-2h3.8C25.4,24,26.3,24.9,26.3,26z"/>
</g>
<g>
</g>
<g>
</g>
<g>
</g>
<g>
</g>
<g>
</g>
<g>
</g>
<g>
</g>
<g>
</g>
<g>
</g>
<g>
</g>
<g>
</g>
<g>
</g>
<g>
</g>
<g>
</g>
<g>
</g>
</svg>
