<?xml version="1.0" encoding="iso-8859-1"?>
<!-- Generator: Adobe Illustrator 18.1.1, SVG Export Plug-In . SVG Version: 6.00 Build 0)  -->
<svg version="1.1" id="Capa_1" xmlns="http://www.w3.org/2000/svg" xmlns:xlink="http://www.w3.org/1999/xlink" x="0px" y="0px"
	 viewBox="15 0 85 85" style="enable-background:new 0 0 85 85;" xml:space="preserve">
<g id="_x37_7_Essential_Icons_30_">
<path fill-rule="evenodd" 
 d="M94.657,44.064 L43.062,79.101 C42.094,79.758 41.013,79.556 40.358,78.597 C39.703,77.637 39.912,76.560 40.879,75.903 L92.475,40.866 C93.442,40.209 93.651,39.131 92.996,38.172 L71.171,6.189 C70.516,5.230 69.435,5.028 68.467,5.685 L16.872,40.722 C15.904,41.379 14.823,41.177 14.168,40.218 C13.513,39.258 13.722,38.181 14.689,37.524 L66.285,2.487 C69.026,0.625 72.541,1.281 74.396,4.000 L96.221,35.982 C98.076,38.700 97.398,42.203 94.657,44.064 ZM25.031,49.222 C25.686,50.181 25.478,51.259 24.510,51.916 L11.611,60.675 C10.644,61.332 9.563,61.131 8.908,60.171 C8.253,59.211 8.462,58.134 9.429,57.477 L22.328,48.718 C23.295,48.061 24.377,48.263 25.031,49.222 ZM32.621,53.429 C33.589,52.772 34.670,52.973 35.325,53.933 C35.980,54.892 35.771,55.970 34.804,56.627 L21.905,65.386 C20.938,66.043 19.856,65.841 19.201,64.882 C18.547,63.923 18.755,62.845 19.722,62.188 L32.621,53.429 ZM70.120,33.347 L86.341,36.372 C87.423,36.574 88.078,37.534 87.869,38.611 C87.765,39.150 87.390,39.638 87.068,39.857 C86.745,40.076 86.152,40.245 85.612,40.144 L69.390,37.119 C68.309,36.917 67.654,35.958 67.862,34.880 C68.071,33.802 69.038,33.145 70.120,33.347 ZM58.359,42.737 C56.747,43.832 54.646,44.557 52.431,44.423 L26.339,43.186 C25.206,43.253 24.442,42.134 24.489,41.166 C24.427,40.038 25.556,39.271 26.528,39.313 L52.458,40.660 C55.105,40.735 57.524,39.093 58.424,36.609 L66.676,12.050 C66.994,11.132 68.231,10.526 69.151,10.837 C70.072,11.148 70.674,12.377 70.357,13.295 L62.105,37.854 C61.579,39.849 59.971,41.643 58.359,42.737 ZM42.915,58.139 C43.882,57.482 44.964,57.684 45.618,58.644 C46.273,59.603 46.065,60.681 45.097,61.338 L32.198,70.097 C31.231,70.754 30.149,70.552 29.495,69.593 C28.840,68.633 29.048,67.556 30.016,66.899 L42.915,58.139 Z"/>
</g>
<g>
</g>
<g>
</g>
<g>
</g>
<g>
</g>
</svg> 