<?xml version="1.0" encoding="iso-8859-1"?>
<!-- Generator: Adobe Illustrator 18.1.1, SVG Export Plug-In . SVG Version: 6.00 Build 0)  -->
<svg version="1.1" id="Capa_1" xmlns="http://www.w3.org/2000/svg" xmlns:xlink="http://www.w3.org/1999/xlink" x="0px" y="0px"
	 viewBox="0 0 80 80" style="enable-background:new 0 0 80 80;" xml:space="preserve">
<g id="_x37_7_Essential_Icons_30_">
<path fill-rule="evenodd" 
 d="M8.629,79.037 L8.629,19.201 L9.909,19.201 L9.909,0.991 L68.779,0.991 L68.779,19.201 L70.059,19.201 L70.059,79.037 L8.629,79.037 ZM12.469,3.592 L12.469,19.201 L13.108,19.201 L19.738,10.219 L13.219,3.592 L12.469,3.592 ZM16.308,19.201 L20.147,19.201 L20.147,13.997 L16.308,19.201 ZM16.838,3.592 L22.331,9.175 C22.373,9.217 22.393,9.275 22.429,9.322 C22.478,9.387 22.526,9.448 22.561,9.520 C22.574,9.549 22.597,9.571 22.608,9.599 C22.630,9.651 22.629,9.707 22.643,9.762 C22.663,9.844 22.683,9.922 22.689,10.005 C22.692,10.036 22.707,10.065 22.707,10.096 L22.707,19.201 L55.981,19.201 L55.981,10.096 C55.981,10.065 55.997,10.036 55.999,10.005 C56.004,9.921 56.024,9.844 56.045,9.762 C56.060,9.709 56.058,9.651 56.080,9.599 C56.093,9.569 56.115,9.549 56.129,9.520 C56.163,9.448 56.211,9.387 56.259,9.322 C56.295,9.275 56.317,9.217 56.358,9.175 L61.851,3.592 L16.838,3.592 ZM66.220,3.592 L65.470,3.592 L58.951,10.219 L65.580,19.201 L66.220,19.201 L66.220,3.592 ZM58.541,13.997 L58.541,19.201 L62.380,19.201 L58.541,13.997 ZM67.500,21.803 L11.189,21.803 L11.189,76.435 L67.500,76.435 L67.500,21.803 ZM29.106,24.405 C31.929,24.405 34.225,26.738 34.225,29.608 C34.225,30.327 33.652,30.909 32.945,30.909 C32.239,30.909 31.665,30.327 31.665,29.608 C31.665,28.173 30.517,27.006 29.106,27.006 C27.694,27.006 26.546,28.173 26.546,29.608 C26.546,30.327 25.973,30.909 25.267,30.909 C24.560,30.909 23.987,30.327 23.987,29.608 C23.987,26.738 26.283,24.405 29.106,24.405 ZM29.106,28.307 C29.812,28.307 30.386,28.888 30.386,29.608 L30.386,37.412 C30.386,42.432 34.404,46.518 39.344,46.518 C44.284,46.518 48.303,42.432 48.303,37.412 L48.303,29.608 C48.303,28.888 48.876,28.307 49.583,28.307 C50.289,28.307 50.862,28.888 50.862,29.608 L50.862,37.412 C50.862,43.868 45.694,49.119 39.344,49.119 C32.994,49.119 27.826,43.868 27.826,37.412 L27.826,29.608 C27.826,28.888 28.399,28.307 29.106,28.307 ZM47.023,29.608 C47.023,30.327 46.450,30.909 45.743,30.909 C45.037,30.909 44.463,30.327 44.463,29.608 C44.463,26.738 46.759,24.405 49.583,24.405 C52.406,24.405 54.702,26.738 54.702,29.608 C54.702,30.327 54.128,30.909 53.422,30.909 C52.715,30.909 52.142,30.327 52.142,29.608 C52.142,28.173 50.994,27.006 49.583,27.006 C48.171,27.006 47.023,28.173 47.023,29.608 Z"/>

</g>
<g>
</g>
<g>
</g>
<g>
</g>
<g>
</g>
</svg>

