<?xml version="1.0" encoding="iso-8859-1"?>
<!-- Generator: Adobe Illustrator 19.0.0, SVG Export Plug-In . SVG Version: 6.00 Build 0)  -->
<svg version="1.1" id="Layer_1" xmlns="http://www.w3.org/2000/svg" xmlns:xlink="http://www.w3.org/1999/xlink" x="0px" y="0px"
	 viewBox="0 0 512 512" style="enable-background:new 0 0 512 512;" xml:space="preserve">
<g>
	<g>
		<g>
			<path d="M165.149,204.125c1.49,0,3.003-0.333,4.429-1.036l1.032-0.51c4.966-2.466,6.994-8.49,4.53-13.456
				c-2.465-4.966-8.49-6.993-13.456-4.53l-0.979,0.484c-4.974,2.451-7.019,8.469-4.569,13.443
				C157.884,202.067,161.446,204.125,165.149,204.125z"/>
			<path d="M136.054,217.622c5.218-1.871,7.932-7.62,6.06-12.839c-1.871-5.218-7.618-7.934-12.839-6.06
				c-13.32,4.778-26.314,7.957-39.722,9.719c-5.497,0.722-9.369,5.765-8.646,11.261c0.664,5.054,4.977,8.732,9.941,8.732
				c0.436,0,0.877-0.028,1.32-0.086C107.014,226.398,121.369,222.889,136.054,217.622z"/>
			<path d="M501.961,306.531h-2.51v-30.26c0-25.212-18.055-46.494-42.931-50.601L294.87,198.978l-95.412-71.804
				c-2.93-2.206-6.833-2.637-10.175-1.125c-11.28,5.103-21.475,10.339-31.332,15.404c-39.25,20.164-70.253,36.089-133.585,24.688
				c-2.926-0.525-5.937,0.271-8.218,2.179c-2.281,1.907-3.6,4.727-3.6,7.702v130.51h-2.509C4.495,306.531,0,311.025,0,316.57v60.235
				c0,5.545,4.495,10.039,10.039,10.039H181.71c4.858,0,9.019-3.479,9.881-8.261l2.127-11.817h30.139
				c18.48,12.97,40.874,20.078,63.446,20.078h214.659c5.544,0,10.039-4.495,10.039-10.039V316.57
				C512,311.025,507.504,306.531,501.961,306.531z M32.627,187.788c11.292,1.558,21.626,2.268,31.234,2.268
				c43.413-0.002,71.682-14.52,103.265-30.744c8.022-4.121,16.272-8.36,25.053-12.488l15.946,12.001l-17.419,18.099
				c-3.845,3.995-3.723,10.35,0.272,14.195c1.948,1.874,4.455,2.806,6.961,2.806c2.633,0,5.264-1.03,7.234-3.077l18.976-19.716
				c0.046-0.048,0.084-0.1,0.13-0.15l17.534,13.196l-18.804,19.538c-3.845,3.995-3.723,10.35,0.272,14.195
				c1.948,1.874,4.455,2.806,6.961,2.806c2.633,0,5.264-1.03,7.234-3.077l18.976-19.716c0.517-0.537,0.956-1.119,1.329-1.73
				l16.673,12.548l-16.212,16.844c-3.845,3.995-3.724,10.35,0.272,14.195c1.947,1.874,4.455,2.806,6.961,2.806
				c2.633,0,5.264-1.03,7.234-3.077l18.976-19.716c0.268-0.278,0.512-0.57,0.741-0.869l160.824,26.556
				c15.136,2.5,26.123,15.449,26.123,30.79v30.26H115.11c-4.538-42.071-39.57-75.117-82.482-76.558V187.788z M32.627,250.04
				c31.836,1.394,57.875,25.508,62.261,56.491H32.627V250.04z M491.922,366.766H287.302c-19.394,0-38.63-6.417-54.166-18.071
				c-1.738-1.303-3.851-2.008-6.024-2.008h-41.789c-4.858,0-9.019,3.479-9.881,8.261l-2.127,11.817H20.078v-40.157h471.843V366.766z
				"/>
		</g>
	</g>
</g>
<g>
</g>
<g>
</g>
<g>
</g>
<g>
</g>
<g>
</g>
<g>
</g>
<g>
</g>
<g>
</g>
<g>
</g>
<g>
</g>
<g>
</g>
<g>
</g>
<g>
</g>
<g>
</g>
<g>
</g>
</svg>
