<?xml version="1.0" encoding="iso-8859-1"?>
<!-- Generator: Adobe Illustrator 19.0.0, SVG Export Plug-In . SVG Version: 6.00 Build 0)  -->
<svg version="1.1" id="Capa_1" xmlns="http://www.w3.org/2000/svg" xmlns:xlink="http://www.w3.org/1999/xlink" x="0px" y="0px"
	 viewBox="0 0 511.998 511.998" style="enable-background:new 0 0 511.998 511.998;" xml:space="preserve">
<g>
	<g>
		<g>
			<path d="M278.149,316.958c-12.61,0-22.868,10.258-22.868,22.868c0,12.61,10.259,22.868,22.868,22.868
				s22.868-10.259,22.868-22.868S290.76,316.958,278.149,316.958z M278.149,347.693c-4.338,0-7.867-3.529-7.867-7.867
				c0-4.337,3.529-7.867,7.867-7.867s7.867,3.528,7.867,7.867C286.016,344.165,282.488,347.693,278.149,347.693z"/>
			<path d="M278.149,369.694c-12.61,0-22.868,10.258-22.868,22.868s10.259,22.868,22.868,22.868s22.868-10.259,22.868-22.868
				S290.76,369.694,278.149,369.694z M278.149,400.429c-4.338,0-7.867-3.529-7.867-7.867c0-4.337,3.529-7.867,7.867-7.867
				s7.867,3.528,7.867,7.867C286.016,396.9,282.488,400.429,278.149,400.429z"/>
			<path d="M278.149,422.43c-12.61,0-22.868,10.258-22.868,22.868c0,12.61,10.259,22.868,22.868,22.868s22.868-10.259,22.868-22.868
				S290.76,422.43,278.149,422.43z M278.149,453.165c-4.338,0-7.867-3.529-7.867-7.867s3.529-7.867,7.867-7.867
				s7.867,3.528,7.867,7.867S282.488,453.165,278.149,453.165z"/>
			<path d="M278.149,193.855c13.909,0,25.225-11.316,25.225-25.225s-11.316-25.225-25.225-25.225s-25.225,11.316-25.225,25.225
				S264.24,193.855,278.149,193.855z M278.149,158.405c5.638,0,10.224,4.586,10.224,10.224c0,5.638-4.586,10.224-10.224,10.224
				s-10.224-4.586-10.224-10.224C267.926,162.991,272.512,158.405,278.149,158.405z"/>
			<path d="M306.275,198.587c-3.397-2.37-8.073-1.536-10.443,1.862c-3.529,5.061-10.305,8.205-17.682,8.205
				c-7.379,0-14.155-3.145-17.685-8.208c-2.369-3.397-7.044-4.233-10.442-1.864c-3.398,2.369-4.232,7.045-1.864,10.443
				c6.386,9.161,17.598,14.63,29.991,14.63c12.39,0,23.6-5.468,29.986-14.625C310.506,205.631,309.672,200.956,306.275,198.587z"/>
			<circle cx="240.26" cy="149.672" r="10.439"/>
			<circle cx="316.037" cy="149.672" r="10.439"/>
			<path d="M465.149,314.57c-7.661-17.004-28.427-24.86-45.422-17.203l-16.409,7.394c-1.153-2.188-2.358-4.351-3.63-6.484
				c0,0,6.234-6.27,6.238-6.274c6.217-6.253,6.181-16.655-0.067-22.865l-23.076-22.943c2.812-21.275-5.404-42.016-17.037-54.355
				c1.965-7.412,3.018-15.19,3.018-23.211c0-19.082-5.841-37.222-16.892-52.651V86.297c0.693-3.053,4.605-18.177,15.296-25.869
				c5.615,7.332,14.452,12.072,24.379,12.072c16.927,0,30.7-13.772,30.7-30.7c0-16.928-13.772-30.7-30.7-30.7
				c-4.18,0-8.168,0.843-11.803,2.363c-39.023-24.271-90.575-11.837-123.647,6.758c-3.611,2.03-4.892,6.604-2.862,10.214
				c2.03,3.61,6.604,4.891,10.214,2.862c42.995-24.174,80.711-21.055,103.426-9.793c-1.161,1.56-2.147,3.235-2.987,4.983
				c-2.657,5.529-3.558,11.755-2.705,17.82c0.004,0.031,0.006,0.063,0.011,0.094c-13.646,8.159-20.005,23.163-22.623,31.615H220.536
				c2.585-9.15,9.612-19.226,20.137-28.628c3.089-2.76,3.356-7.502,0.597-10.591c-2.759-3.089-7.502-3.357-10.591-0.597
				c-16.927,15.121-26.25,31.925-26.25,47.316v30.461c-11.052,15.428-16.893,33.57-16.893,52.653c0,8.021,1.053,15.799,3.018,23.211
				c-14.119,14.978-23.219,42.34-13.653,67.999c1.062,2.85,2.341,5.604,3.816,8.256c-11.286,10.733-20.619,23.136-27.737,36.666
				l-8.979-4.045l-7.721-105.682c4.981-2.533,9.563-5.87,13.536-9.934c8.837-9.026,14.056-20.939,14.697-33.541l4.682-91.35
				c0.21-4.101-1.291-8.16-4.118-11.136c-3.082-3.244-7.476-4.978-12.01-4.646l-95.223,6.957c-4.303,0.314-8.271,2.464-10.883,5.898
				c-2.612,3.433-3.625,7.83-2.781,12.06l17.908,89.698c3.694,18.498,17.108,33.094,34.243,38.896l7.447,101.941
				c-5.428,3.521-9.868,8.567-12.629,14.693c-3.768,8.365-4.054,17.696-0.805,26.274c3.249,8.58,9.646,15.379,18.009,19.148
				l28.399,12.795c1.189,76.964,64.156,139.211,141.398,139.211s140.209-62.247,141.398-139.211c0,0,28.389-12.791,28.398-12.795
				C464.99,352.311,472.836,331.63,465.149,314.57z M391.548,26.101c8.656-0.001,15.698,7.042,15.698,15.697
				s-7.043,15.698-15.698,15.698c-8.434,0-15.698-7.248-15.698-15.698C375.849,33.272,383.031,26.101,391.548,26.101z
				 M395.282,279.777c0.283,0.282,0.344,0.604,0.344,0.824c0.001,0.221-0.058,0.543-0.339,0.826l-26.331,26.484
				c-0.443,0.449-1.203,0.453-1.65,0.005l-15.489-15.399c14.168-8.792,22.059-19.643,26.4-29.708L395.282,279.777z M219.43,93.016
				h117.441v17.887H219.43V93.016z M215.769,125.905h124.762c8.668,12.604,13.231,27.299,13.231,42.725
				c0,37.753-27.813,69.13-64.023,74.724c-3.832,0.592-7.712,0.889-11.589,0.889c-3.872,0-7.762-0.306-11.589-0.889
				c-36.211-5.594-64.023-36.971-64.023-74.724C202.538,153.205,207.101,138.509,215.769,125.905z M196.636,208.259
				c12.909,26.675,37.987,45.233,67.201,49.851c9.487,1.499,19.137,1.472,28.625,0c29.214-4.617,54.292-23.175,67.201-49.851
				c6.818,10.461,10.574,25.204,7.65,39.443c-0.789,3.823-2.06,7.554-3.772,11.063c-15.48,31.735-58.466,36.229-89.471,35.667
				c-30.547-0.554-70.923-7.142-83.112-39.832C184.911,238.381,188.708,220.424,196.636,208.259z M58.939,66.345l95.278-6.904
				l-1.377,26.871l-8.633,0.631L64.172,92.79L58.939,66.345z M67.12,107.616l84.945-6.206l-0.451,8.806l-73.292,5.354l-9.477,0.692
				L67.12,107.616z M76.801,156.102l-4.995-25.013l79.035-5.774c0,0-1.306,25.466-1.307,25.476
				c-0.936,18.242-15.814,33.435-34.025,34.767C97.277,186.893,80.379,174.015,76.801,156.102z M128.534,294.867
				c-0.11-0.02-3.037-0.43-4.401-0.495c-1.897-0.09-3.813-0.027-5.7,0.196l-6.862-93.926c1.674,0.04,3.358,0,5.045-0.124
				c1.574-0.115,3.252-0.32,4.847-0.589c0.044-0.007,0.089-0.012,0.133-0.019L128.534,294.867z M137.76,353.583
				c-0.121,1.015-0.25,2.031-0.35,3.048c0,0-22.881-10.31-22.893-10.315c-9.607-4.328-14.021-15.966-9.69-25.581
				c3.058-6.789,10.215-11.401,17.66-11.401c4.179,0,7.518,1.761,11.288,3.228l12.904,5.815
				C142.171,329.696,139.202,341.478,137.76,353.583z M278.151,496.996c-69.711,0-126.424-56.713-126.424-126.424
				c-0.002-33.522,13.809-66.597,37.881-90.224c4.853,5.253,10.462,9.603,16.566,13.194c20.832,12.26,45.497,15.625,69.294,15.911
				c20.732,0.249,41.982-1.828,61.403-9.507c0.272-0.107,0.552-0.208,0.822-0.317c0,0,19.019,18.909,19.036,18.926
				c6.23,6.194,16.669,6.164,22.866-0.067l9.144-9.197c10.362,18.642,15.836,39.96,15.836,61.281
				C404.576,440.283,347.863,496.996,278.151,496.996z M441.782,346.316l-22.905,10.321c-0.004-0.038-0.009-0.075-0.013-0.113
				c-1.314-12.734-4.315-25.495-9.022-37.519c-0.081-0.207-0.153-0.417-0.235-0.623l16.282-7.337
				c9.614-4.331,21.253,0.082,25.581,9.689C455.808,330.359,451.383,341.991,441.782,346.316z"/>
		</g>
	</g>
</g>
<g>
</g>
<g>
</g>
<g>
</g>
<g>
</g>
<g>
</g>
<g>
</g>
<g>
</g>
<g>
</g>
<g>
</g>
<g>
</g>
<g>
</g>
<g>
</g>
<g>
</g>
<g>
</g>
<g>
</g>
</svg>
